<svg xmlns="http://www.w3.org/2000/svg" viewBox="0 0 925.01 990"><defs><style>.cls-1{fill:#1abc9c;}.cls-2{fill:#1d967e;}.cls-3{fill:#146051;}.cls-4{fill:#093a3e;}.cls-5{fill:#fff;}</style></defs><title>Asset 1</title><g id="Layer_2" data-name="Layer 2"><g id="Layer_1-2" data-name="Layer 1"><rect class="cls-1" x="0.77" y="157.08" width="924.24" height="675.83"/><polygon class="cls-2" points="925.01 157.09 248.41 157.09 249.18 87.67 925.01 157.09"/><polygon class="cls-3" points="369.74 36.53 360.97 99.16 925.01 157.09 369.74 36.53"/><polygon class="cls-4" points="482.98 0 462.89 56.76 925.01 157.09 482.98 0"/><polygon class="cls-2" points="0 832.91 676.6 832.91 675.83 902.33 0 832.91"/><polygon class="cls-3" points="555.28 953.47 564.04 890.84 0 832.91 555.28 953.47"/><polygon class="cls-4" points="442.03 990 462.12 933.24 0 832.91 442.03 990"/><path class="cls-5" d="M90.32,533.15V428.78h25.09v79.36h65.33v25Z"/><path class="cls-5" d="M195.91,502.45a53.76,53.76,0,0,1,0-42.74,56.53,56.53,0,0,1,79.62-26.31,54.94,54.94,0,0,1,20.36,20.08,54.54,54.54,0,0,1,0,55.17,55.95,55.95,0,0,1-48.38,27.4,55.47,55.47,0,0,1-51.6-33.6Zm29.71-43.25A30.92,30.92,0,0,0,247.51,512a30.85,30.85,0,0,0,30.78-30.9,30,30,0,0,0-9-21.88,30.76,30.76,0,0,0-43.66,0Z"/><path class="cls-5" d="M321.18,480.77A53.76,53.76,0,0,1,324,463.44a52.15,52.15,0,0,1,8-15.18,60,60,0,0,1,12.09-11.88,54.24,54.24,0,0,1,15.44-7.88,56.7,56.7,0,0,1,17.64-2.78,54.14,54.14,0,0,1,24.45,5.45,51.26,51.26,0,0,1,18.57,15.72l-19.14,12.24a32.29,32.29,0,0,0-23.88-9.34,30.94,30.94,0,1,0,22.31,52.38v-11h-31.6V471.12h53.64v42.43h-.16a54.85,54.85,0,0,1-44.19,22.19,55.76,55.76,0,0,1-28.09-7.37,55.05,55.05,0,0,1-20.44-20A53.11,53.11,0,0,1,321.18,480.77Z"/><path class="cls-5" d="M444.55,533.15V428.78h25.09V533.15Z"/><path class="cls-5" d="M487.57,500.84H514.7a10.17,10.17,0,0,0,.23,1.64,18.32,18.32,0,0,0,1.37,3.57,16.09,16.09,0,0,0,3.05,4.37,16.69,16.69,0,0,0,5.81,3.52,24.08,24.08,0,0,0,9.06,1.57,23.49,23.49,0,0,0,13.24-3.82q5.77-3.82,5.78-8.76a11.33,11.33,0,0,0-1.48-5.76,12.58,12.58,0,0,0-3.6-4.1,21.29,21.29,0,0,0-6.35-2.71q-4.21-1.19-7.11-1.71l-6.38-1.16-4.54-.84-5.56-1a42.37,42.37,0,0,1-6.07-1.67,50.66,50.66,0,0,1-6.28-2.57,37,37,0,0,1-5.64-3.5,22.67,22.67,0,0,1-4.79-4.67,23.17,23.17,0,0,1-4.31-13.59,28.3,28.3,0,0,1,5.61-16.91A38.56,38.56,0,0,1,512,430.41a48.54,48.54,0,0,1,21-4.54,62.23,62.23,0,0,1,18.42,2.55,38.65,38.65,0,0,1,13.29,6.71,30.06,30.06,0,0,1,7.72,9.25,22.15,22.15,0,0,1,2.68,10.43H551a4.06,4.06,0,0,0-1-2.35,11.73,11.73,0,0,0-2.86-2.57,16.94,16.94,0,0,0-5.66-2.15,38.41,38.41,0,0,0-8.53-.85,20.54,20.54,0,0,0-11.82,3.33q-4.92,3.34-4.92,8c0,1.45,1,2.69,2.86,3.72s3.78,2.11,5.62,3.25a16,16,0,0,0,6.16,2.18c2.25.32,4.28.6,6.06.83s2.89.41,3.33.51q12.93,1.38,17.83,2.26Q575,478,577.75,495.47a47.51,47.51,0,0,1,.58,7.62,25.6,25.6,0,0,1-6,16.28,41.52,41.52,0,0,1-16.2,12,53.74,53.74,0,0,1-21.87,4.47,61.13,61.13,0,0,1-17-2.27,44.76,44.76,0,0,1-13.23-6,43.68,43.68,0,0,1-9.14-8.35,32.71,32.71,0,0,1-5.53-9.37A26.38,26.38,0,0,1,487.57,500.84Z"/><path class="cls-5" d="M591.73,451.28v-22.5H696v22.5H656.42v81.87H631.33V451.28Z"/><path class="cls-5" d="M715.2,533.15V428.78h25.1V533.15Z"/><path class="cls-5" d="M760.89,516.6l35.84-36-35.84-35.29L780,426.19l36,35.36,35.13-35.68L870.29,445l-35.53,35.91,35.53,35.84-19.14,19.13L816,500.22l-36,35.52Z"/></g></g></svg>